<?xml version="1.0" encoding="UTF-8" standalone="no"?>
<!-- Created with Inkscape (http://www.inkscape.org/) -->

<svg
   width="105.64236mm"
   height="88.974953mm"
   viewBox="0 0 105.64236 88.974953"
   version="1.1"
   id="svg1"
   inkscape:version="1.4.2 (f4327f4, 2025-05-13)"
   sodipodi:docname="backcast_sail.svg"
   xmlns:inkscape="http://www.inkscape.org/namespaces/inkscape"
   xmlns:sodipodi="http://sodipodi.sourceforge.net/DTD/sodipodi-0.dtd"
   xmlns="http://www.w3.org/2000/svg"
   xmlns:svg="http://www.w3.org/2000/svg">
  <sodipodi:namedview
     id="namedview1"
     pagecolor="#ffffff"
     bordercolor="#000000"
     borderopacity="0.25"
     inkscape:showpageshadow="2"
     inkscape:pageopacity="0.0"
     inkscape:pagecheckerboard="0"
     inkscape:deskcolor="#d1d1d1"
     inkscape:document-units="mm"
     inkscape:zoom="0.78840488"
     inkscape:cx="225.13813"
     inkscape:cy="214.99106"
     inkscape:window-width="1920"
     inkscape:window-height="1129"
     inkscape:window-x="-8"
     inkscape:window-y="-8"
     inkscape:window-maximized="1"
     inkscape:current-layer="layer1" />
  <defs
     id="defs1" />
  <g
     inkscape:label="Livello 1"
     inkscape:groupmode="layer"
     id="layer1"
     transform="translate(-45.212538,-91.731657)">
    <path
       d="m 111.68818,180.5767 c -4.13165,-0.28693 -11.921638,-1.24108 -21.034375,-2.57638 -9.089661,-1.33191 -13.194556,-1.71124 -20.6375,-1.90706 -8.528682,-0.2244 -15.750189,0.34946 -22.336974,1.77501 -1.298513,0.28103 -2.407361,0.46454 -2.464107,0.40779 -0.12307,-0.12307 4.009356,-1.48993 6.82964,-2.25901 2.786273,-0.7598 7.370784,-1.57752 9.964718,-1.77735 l 2.179736,-0.16793 -0.162883,-1.08568 c -0.08959,-0.59712 -0.177498,-1.19809 -0.195361,-1.33548 -0.01786,-0.1374 2.356399,-0.44651 5.276136,-0.68693 2.919737,-0.24041 5.5055,-0.5473 5.74614,-0.68197 0.240639,-0.13467 1.856765,-1.57801 3.591391,-3.20743 l 3.153865,-2.96257 5.519787,-0.30384 c 3.035883,-0.16712 7.050329,-0.24935 8.920999,-0.18275 l 3.4012,0.12109 -0.15715,-0.94998 c -0.0864,-0.52249 -0.15846,-1.47296 -0.16006,-2.11216 l -0.003,-1.16217 -1.52135,0.16499 c -6.214059,0.6739 -9.776783,1.04865 -15.544275,1.63503 -3.638021,0.36987 -7.745677,0.83219 -9.128125,1.02735 -1.382448,0.19517 -2.548358,0.32546 -2.59091,0.28952 -0.04255,-0.0359 0.75379,-1.65771 1.76965,-3.60394 6.858155,-13.13918 14.099245,-30.97754 17.868894,-44.01986 0.252361,-0.87312 0.687675,-2.32864 0.967364,-3.23448 0.279689,-0.90585 1.103233,-4.04844 1.830097,-6.98354 1.263945,-5.103845 1.322945,-5.505076 1.353105,-9.200936 l 0.0315,-3.864377 0.35475,1.719792 c 0.1951,0.945885 0.43694,2.731823 0.53741,3.96875 0.21324,2.625121 -0.18944,1.994486 5.226848,8.185801 1.98804,2.27251 6.98391,9.01951 9.61177,12.98087 4.46794,6.73515 8.64127,14.05838 11.98958,21.03893 1.16297,2.42455 2.11448,4.45183 2.11448,4.50508 0,0.0532 0.35029,0.8463 0.77841,1.76234 1.69273,3.62185 5.96963,14.71714 5.75554,14.93123 -0.0507,0.0507 -0.60305,-0.15476 -1.22754,-0.45648 -2.15841,-1.04283 -6.63407,-2.34795 -9.06581,-2.64362 -5.25699,-0.63918 -11.01093,0.50649 -16.54737,3.29477 -2.22238,1.11925 -2.13417,1.24769 -1.54334,-2.24707 2.63201,-15.56831 1.51939,-35.61182 -2.642008,-47.59522 -1.31747,-3.79384 -3.54233,-9.0937 -3.73614,-8.89989 -0.0639,0.0639 0.002,1.34872 0.14701,2.85522 1.12974,11.75954 1.73361,17.86258 2.28683,23.112 0.35272,3.34698 0.76912,7.63323 0.92532,9.525 0.1562,1.89177 0.45323,4.9874 0.66007,6.87917 0.20684,1.89177 0.623868,6.47567 0.926728,10.18645 0.30286,3.71079 0.63489,7.28266 0.73783,7.9375 l 0.18718,1.19063 2.51354,0.30236 c 1.38245,0.1663 4.08481,0.51592 6.00525,0.77693 3.48411,0.47354 3.49963,0.47327 7.14375,-0.12325 2.00862,-0.32881 6.31737,-1.12857 9.57498,-1.77726 3.25762,-0.64869 5.97271,-1.12966 6.03353,-1.06884 0.19607,0.19607 -1.13937,3.2115 -2.30979,5.21553 -1.5849,2.71373 -4.87382,5.95059 -7.34378,7.22756 -1.75466,0.90715 -6.54944,2.18666 -7.28073,1.9429 -0.13523,-0.0451 0.62688,-0.37343 1.69359,-0.72967 4.67699,-1.56194 9.02376,-5.23678 11.80216,-9.97776 0.37098,-0.63302 0.63027,-1.18779 0.57621,-1.23281 -0.0541,-0.045 -1.16985,0.13127 -2.47954,0.39178 -7.0548,1.40326 -16.93606,3.08288 -22.35729,3.80031 -15.091647,1.99716 -25.592587,3.18347 -35.321877,3.99036 -3.027646,0.25109 -3.571875,0.37718 -3.571875,0.82753 0,0.31132 0.167016,0.37165 0.675545,0.24402 1.083331,-0.2719 11.763509,-0.20366 16.522372,0.10557 5.3596,0.34827 7.582727,0.58847 16.007287,1.72953 13.503568,1.82899 13.530428,1.83124 21.960418,1.84037 8.1861,0.009 11.42649,-0.22906 16.36894,-1.20188 5.01058,-0.98623 9.66797,-2.34501 11.90097,-3.47209 1.72752,-0.87194 1.34886,-0.34146 -0.54606,0.76499 -6.60741,3.85811 -15.52884,6.22505 -26.19957,6.95098 -3.70623,0.25214 -8.41181,0.28817 -11.31386,0.0866 z M 88.072431,168.97576 c 7.837751,-0.86352 16.182829,-1.95318 18.456369,-2.40994 0.75241,-0.15116 0.38034,-0.24784 -1.98437,-0.51561 -4.654398,-0.52705 -13.315912,-0.72451 -17.978462,-0.40986 l -4.220128,0.28479 -1.995446,1.99545 c -1.64686,1.64686 -1.892118,1.99544 -1.403954,1.99544 0.32532,0 4.432016,-0.42312 9.125991,-0.94027 z m 0.441334,-10.30041 c 5.589697,-0.51012 10.210357,-0.97477 10.268127,-1.03254 0.0578,-0.0578 -0.0806,-2.17174 -0.30742,-4.69768 -2.5618,-28.52448 -3.68268,-42.35634 -3.9244,-48.42816 -0.0745,-1.87217 -0.2414,-1.57137 -0.98008,1.76677 -3.518495,15.90028 -8.862633,31.84671 -15.990541,47.71436 -1.394834,3.10508 -2.536063,5.73387 -2.536063,5.84176 0,0.1079 0.744141,0.0987 1.653646,-0.0204 0.909506,-0.11913 6.227034,-0.63397 11.816731,-1.14409 z m 17.683995,-0.78091 c 4.144,-2.10903 9.99905,-3.12061 14.90486,-2.57511 1.58653,0.17641 3.18318,0.43427 3.5481,0.57301 0.36493,0.13875 0.6635,0.20599 0.6635,0.14944 0,-0.16684 -2.64147,-7.08793 -3.03563,-7.95387 -0.19872,-0.43656 -0.716,-1.68672 -1.14951,-2.77813 -2.11915,-5.33513 -8.02719,-17.55978 -9.98637,-20.66332 -0.35484,-0.5621 -0.64516,-1.06743 -0.64516,-1.12297 0,-0.2069 -4.35212,-7.27142 -5.89367,-9.56683 -2.05615,-3.06164 -4.21433,-5.98748 -4.33071,-5.87111 -0.05,0.05 0.27602,1.09377 0.72445,2.31953 3.73574,10.21166 5.21892,19.96029 4.92076,32.34311 -0.16305,6.7715 -0.51913,10.09811 -1.65482,15.46003 -0.0694,0.32742 -0.0644,0.59531 0.0109,0.59531 0.0754,0 0.94082,-0.40909 1.92327,-0.90909 z"
       style="fill:#447821"
       id="path1" />
  </g>
</svg>
