<?xml version="1.0" encoding="UTF-8" standalone="no"?>
<!-- Created with Inkscape (http://www.inkscape.org/) -->

<svg
   width="512"
   height="512"
   viewBox="0 0 512 512"
   version="1.1"
   id="svg1"
   xml:space="preserve"
   sodipodi:docname="pesta_inkscape.svg"
   inkscape:export-filename="bitmap.svg"
   inkscape:export-xdpi="23.630766"
   inkscape:export-ydpi="23.630766"
   inkscape:version="1.4.2 (f4327f4, 2025-05-13)"
   xmlns:inkscape="http://www.inkscape.org/namespaces/inkscape"
   xmlns:sodipodi="http://sodipodi.sourceforge.net/DTD/sodipodi-0.dtd"
   xmlns="http://www.w3.org/2000/svg"
   xmlns:svg="http://www.w3.org/2000/svg"><sodipodi:namedview
     id="namedview1"
     pagecolor="#ffffff"
     bordercolor="#000000"
     borderopacity="0.25"
     inkscape:showpageshadow="2"
     inkscape:pageopacity="0.0"
     inkscape:pagecheckerboard="0"
     inkscape:deskcolor="#d1d1d1"
     inkscape:document-units="px"
     inkscape:zoom="1.7285156"
     inkscape:cx="256"
     inkscape:cy="256"
     inkscape:window-width="1920"
     inkscape:window-height="1129"
     inkscape:window-x="-8"
     inkscape:window-y="-8"
     inkscape:window-maximized="1"
     inkscape:current-layer="layer1" /><defs
     id="defs1" /><g
     inkscape:label="Livello 1"
     inkscape:groupmode="layer"
     id="layer1"
     style="fill:#44aa00"
     inkscape:export-filename="favicon.png"
     inkscape:export-xdpi="96"
     inkscape:export-ydpi="96"><g
       id="g2"
       style="fill:#44aa00"><path
         style="display:inline;fill:#44aa00"
         d="m 205.73691,262.36227 c -1.44967,-1.51296 -2.13257,-3.40583 -1.84431,-5.11204 0.22806,-1.34986 -0.18526,-1.20369 6.04329,-2.13729 8.30893,-1.24545 14.672,-3.77604 19.65028,-7.81493 l 1.2861,-1.04341 -1.53617,-1.8953 c -2.47919,-3.05879 -4.74459,-6.94655 -8.21609,-14.10005 -1.79166,-3.69194 -3.82531,-7.63942 -4.51923,-8.77217 l -1.26168,-2.05955 0.83579,0.005 c 2.28119,0.0123 6.52898,1.56655 8.84516,3.2364 l 0.68652,0.49495 v -2.00487 c 0,-3.01574 0.81713,-8.64663 1.69374,-11.67163 4.60929,-15.9057 16.88053,-25.95593 37.36147,-30.59928 7.62607,-1.72894 15.08384,-2.33345 34.32588,-2.78235 6.88043,-0.16052 13.95156,-0.43845 15.71362,-0.61763 3.57729,-0.36377 11.0545,-1.42204 12.15819,-1.72078 0.59255,-0.16039 0.37703,0.24828 -1.24812,2.36672 -5.74497,7.48872 -8.02863,13.91248 -10.1484,28.54669 -2.31477,15.98037 -3.73258,22.26594 -6.68454,29.63444 -6.49688,16.21717 -18.58658,26.64174 -33.56763,28.9443 -3.95033,0.60716 -10.69711,0.38103 -14.88138,-0.49877 -6.95747,-1.46289 -14.57818,-5.02137 -20.59915,-9.61872 l -1.29622,-0.98974 2.03018,-2.70805 c 5.21355,-6.95437 10.46722,-12.23498 10.46722,-10.5209 0,0.15004 0.99545,1.0331 2.21212,1.96235 4.64694,3.5492 10.1505,5.32701 15.43753,4.98677 1.62023,-0.10427 3.49509,-0.33893 4.16635,-0.52146 8.53579,-2.3211 14.40073,-7.90664 16.97556,-16.16684 0.5921,-1.8995 0.71042,-2.94368 0.7079,-6.24725 -0.003,-4.57774 -0.44271,-6.58247 -2.27287,-10.37404 -2.751,-5.69928 -7.9937,-10.11536 -14.34267,-12.08122 -3.24978,-1.00624 -8.85642,-1.01379 -12.35732,-0.0166 -7.1638,2.04045 -13.40046,7.77866 -15.80173,14.53881 -2.41551,6.80023 -1.54784,14.65574 2.22435,20.13843 l 0.88454,1.28565 -2.48273,1.95039 c -1.3655,1.07272 -5.23748,4.71109 -8.6044,8.08527 -7.81409,7.83094 -12.14794,11.0704 -18.63155,13.92665 -3.00834,1.32527 -5.71958,2.209 -8.63955,2.81604 -3.15747,0.65642 -3.3687,0.61907 -4.77005,-0.84346 z m 60.85559,-20.35595 c 0,-2.40026 0.0127,-2.44095 0.76279,-2.44095 0.75009,0 0.7628,0.0407 0.7628,2.44095 0,2.40027 -0.0127,2.44095 -0.7628,2.44095 -0.75008,0 -0.76279,-0.0407 -0.76279,-2.44095 z m -0.20482,-15.70073 c -1.47651,-0.64227 -2.07071,-2.24984 -1.49826,-4.05346 0.14026,-0.44193 2.86084,-2.47845 7.74258,-5.79579 8.9673,-6.09367 9.21644,-6.2529 9.21644,-5.89078 0,0.15544 -0.13441,0.3657 -0.29869,0.46723 -0.41635,0.25731 -10.17776,12.51271 -11.13406,13.97875 -0.56211,0.86173 -1.93075,1.74898 -2.66385,1.7269 -0.2181,-0.007 -0.83197,-0.20135 -1.36416,-0.43285 z m -20.54327,-3.35686 c 0,-0.7698 0.018,-0.77513 2.61473,-0.77513 2.53705,0 2.61184,0.0204 2.51724,0.68651 -0.0909,0.64006 -0.26788,0.69252 -2.61474,0.77514 -2.51557,0.0886 -2.51723,0.0881 -2.51723,-0.68652 z m 40.19941,0.52688 c -1.80276,-0.0958 -2.05955,-0.18377 -2.05955,-0.70572 0,-0.54526 0.22379,-0.59629 2.61473,-0.59629 2.53365,0 2.61171,0.0212 2.51723,0.6834 -0.10851,0.76062 -0.16928,0.77286 -3.07241,0.61861 z M 266.5925,203.56135 c 0,-2.40027 0.0127,-2.44096 0.76279,-2.44096 0.75009,0 0.7628,0.0407 0.7628,2.44096 0,2.40026 -0.0127,2.44095 -0.7628,2.44095 -0.75008,0 -0.76279,-0.0407 -0.76279,-2.44095 z"
         id="path1"
         sodipodi:nodetypes="cssscsssccscsssssssssssscsssssscsscsscssssccssssssssssscssssssssssssssss"
         inkscape:label="logo" /></g></g></svg>
